<?xml version="1.0" encoding="UTF-8"?>
<svg version="1.1" xmlns="http://www.w3.org/2000/svg" width="48" height="48">
<path d="M0 0 C0.66 0 1.32 0 2 0 C2 0.66 2 1.32 2 2 C5.3 1.67 8.6 1.34 12 1 C12 3.31 12 5.62 12 8 C10.865625 8.12375 9.73125 8.2475 8.5625 8.375 C6.7990625 8.684375 6.7990625 8.684375 5 9 C4.67 9.66 4.34 10.32 4 11 C4.88751953 10.93039063 4.88751953 10.93039063 5.79296875 10.859375 C9.65271236 10.6830735 12.45064567 10.77577374 16.0625 12.25 C19.22909624 16.74452369 18.37661264 21.67720809 18 27 C17.01 27.495 17.01 27.495 16 28 C16.495 28.99 16.495 28.99 17 30 C17.039992 31.99960012 17.04346799 34.00047242 17 36 C15.02 36 13.04 36 11 36 C10.875 30.25 10.875 30.25 12 28 C11.34 27.67 10.68 27.34 10 27 C9.59270772 24.67843403 9.25561323 22.3431213 9 20 C7.35 19.67 5.7 19.34 4 19 C4 19.66 4 20.32 4 21 C2.02 21 0.04 21 -2 21 C-2 20.34 -2 19.68 -2 19 C-5.63 19 -9.26 19 -13 19 C-13 20.65 -13 22.3 -13 24 C-14.65 24 -16.3 24 -18 24 C-18 18.06 -18 12.12 -18 6 C-16.35 6 -14.7 6 -13 6 C-13 7.65 -13 9.3 -13 11 C-9.37 11 -5.74 11 -2 11 C-2.33 10.34 -2.66 9.68 -3 9 C-5.32156597 8.59270772 -7.6568787 8.25561323 -10 8 C-10 5.69 -10 3.38 -10 1 C-6.7 1.33 -3.4 1.66 0 2 C0 1.34 0 0.68 0 0 Z " fill="#2196F3" transform="translate(24,6)"/>
<path d="M0 0 C4.37973224 -0.34350841 7.95122922 -0.42806971 12.0625 1.25 C15.22909624 5.74452369 14.37661264 10.67720809 14 16 C13.34 16.33 12.68 16.66 12 17 C12.33 17.66 12.66 18.32 13 19 C13.039992 20.99960012 13.04346799 23.00047242 13 25 C11.02 25 9.04 25 7 25 C6.875 19.25 6.875 19.25 8 17 C7.34 16.67 6.68 16.34 6 16 C5.59270772 13.67843403 5.25561323 11.3431213 5 9 C3.35 8.67 1.7 8.34 0 8 C0 5.36 0 2.72 0 0 Z " fill="#2196F3" transform="translate(28,17)"/>
<path d="M0 0 C0.66 0 1.32 0 2 0 C2 0.66 2 1.32 2 2 C5.3 1.67 8.6 1.34 12 1 C12 3.31 12 5.62 12 8 C4.4568898 9.25718503 -2.4568898 9.25718503 -10 8 C-10 5.69 -10 3.38 -10 1 C-6.7 1.33 -3.4 1.66 0 2 C0 1.34 0 0.68 0 0 Z " fill="#EE950D" transform="translate(24,6)"/>
<path d="M0 0 C1.98 0 3.96 0 6 0 C6 3.96 6 7.92 6 12 C4.02 12 2.04 12 0 12 C0 8.04 0 4.08 0 0 Z " fill="#1565C0" transform="translate(22,15)"/>
<path d="M0 0 C0 2.31 0 4.62 0 7 C-2.31 7 -4.62 7 -7 7 C-7.33 5.02 -7.66 3.04 -8 1 C-5.07175348 0.02391783 -3.04386724 -0.08226668 0 0 Z " fill="#FFC006" transform="translate(36,7)"/>
<path d="M0 0 C2.64 0.33 5.28 0.66 8 1 C7.67 2.98 7.34 4.96 7 7 C4.69 7 2.38 7 0 7 C0 4.69 0 2.38 0 0 Z " fill="#FFC006" transform="translate(14,7)"/>
<path d="M0 0 C3 1 3 1 4 3 C4.039992 4.99960012 4.04346799 7.00047242 4 9 C2.02 9 0.04 9 -2 9 C-2.25 3.375 -2.25 3.375 0 0 Z " fill="#80D2FA" transform="translate(37,33)"/>
</svg>
